<svg width="16" height="16" viewBox="0 0 16 16" fill="none" xmlns="http://www.w3.org/2000/svg">
<path d="M7.33636 13.9993H6.40234C4.01217 13.9993 2.81709 13.9993 2.07456 13.2427C1.33203 12.4861 1.33203 11.2683 1.33203 8.83267C1.33203 6.3971 1.33203 5.1793 2.07456 4.42266C2.81709 3.66602 4.01217 3.66602 6.40234 3.66602H8.9375C11.3276 3.66602 12.5228 3.66602 13.2653 4.42266C13.8366 5.00481 13.9683 5.85995 13.9987 7.33267" stroke="#8A358A" stroke-width="1.5" stroke-linecap="round"/>
<path d="M13.3433 13.3495L14.6654 14.6673M14.034 11.685C14.034 10.3866 12.9814 9.33398 11.683 9.33398C10.3846 9.33398 9.33203 10.3866 9.33203 11.685C9.33203 12.9835 10.3846 14.0361 11.683 14.0361C12.9814 14.0361 14.034 12.9835 14.034 11.685Z" stroke="#8A358A" stroke-width="1.5" stroke-linecap="round" stroke-linejoin="round"/>
<path d="M10.668 3.66732L10.6017 3.46128C10.2717 2.43458 10.1067 1.92123 9.71386 1.6276C9.32106 1.33398 8.79926 1.33398 7.75566 1.33398H7.58026C6.53666 1.33398 6.01487 1.33398 5.62204 1.6276C5.22921 1.92123 5.0642 2.43458 4.7342 3.46128L4.66797 3.66732" stroke="#8A358A" stroke-width="1.5"/>
</svg>
