<svg width="19" height="19" viewBox="0 0 19 19" fill="none" xmlns="http://www.w3.org/2000/svg">
<path d="M9.11484 1.65636C9.362 1.55791 9.6367 1.55791 9.88386 1.65636C10.6806 1.97365 10.8362 3.19549 11.7763 3.26351C12.4383 3.31141 13.088 2.75955 13.7523 2.92498C14.0202 2.99171 14.2516 3.16252 14.3966 3.40064C14.8409 4.13029 14.2675 5.20275 14.9922 5.80818C15.4957 6.22863 16.3276 6.17422 16.7653 6.68964C16.9496 6.90675 17.0401 7.18992 17.0165 7.47545C16.9464 8.32483 15.8635 8.85604 16.1015 9.77144C16.2661 10.4051 16.961 10.8506 17.0165 11.5229C17.0401 11.8085 16.9496 12.0917 16.7653 12.3087C16.2152 12.9563 15.0258 12.743 14.6829 13.6208C14.442 14.2368 14.7513 15.0153 14.3966 15.5977C14.2516 15.8358 14.0202 16.0067 13.7523 16.0734C12.9274 16.2788 12.0902 15.3927 11.2965 15.8925C10.7298 16.2493 10.5268 17.0861 9.88386 17.342C9.6367 17.4405 9.362 17.4405 9.11484 17.342C8.47193 17.0861 8.26886 16.2493 7.70218 15.8925C6.91829 15.399 6.05729 16.2753 5.24645 16.0734C4.97851 16.0067 4.74713 15.8358 4.60214 15.5977C4.15786 14.8681 4.73117 13.7956 4.00653 13.1902C3.50312 12.7697 2.67118 12.8242 2.23346 12.3087C2.04914 12.0917 1.9586 11.8085 1.9822 11.5229C2.03777 10.8506 2.7325 10.4051 2.89725 9.77144C3.13283 8.86561 2.05138 8.3124 1.9822 7.47545C1.9586 7.18992 2.04914 6.90675 2.23346 6.68964C2.78345 6.04185 3.97272 6.25536 4.31582 5.37763C4.55667 4.76154 4.2475 3.98307 4.60214 3.40064C4.74713 3.16252 4.97851 2.99171 5.24645 2.92498C5.91076 2.75955 6.56034 3.31142 7.22234 3.26351C8.16246 3.19551 8.3181 1.97365 9.11484 1.65636Z" fill="#E0AA3E"/>
<path d="M7.125 10.5563C7.125 10.5563 7.81771 10.5563 8.51042 11.8758C8.51042 11.8758 10.7108 8.57718 12.6667 7.91748" stroke="white" stroke-width="1.5" stroke-linecap="round" stroke-linejoin="round"/>
</svg>
