<svg width="16" height="16" viewBox="0 0 16 16" fill="none" xmlns="http://www.w3.org/2000/svg">
<path d="M13.0895 7.45429C13.2516 7.69789 13.3327 7.81971 13.3327 8C13.3327 8.18029 13.2516 8.30211 13.0895 8.54571C12.3609 9.64034 10.5003 12 7.99935 12C5.49843 12 3.6378 9.64034 2.90924 8.54571C2.74709 8.30211 2.66602 8.18029 2.66602 8C2.66602 7.81971 2.74709 7.69789 2.90924 7.45429C3.6378 6.35968 5.49843 4 7.99935 4C10.5003 4 12.3609 6.35968 13.0895 7.45429Z" stroke="#141B34"/>
<path d="M9.33268 7.99984C9.33268 7.26344 8.73575 6.6665 7.99935 6.6665C7.26295 6.6665 6.66602 7.26344 6.66602 7.99984C6.66602 8.73624 7.26295 9.33317 7.99935 9.33317C8.73575 9.33317 9.33268 8.73624 9.33268 7.99984Z" stroke="#141B34"/>
</svg>
