<svg width="20" height="20" viewBox="0 0 20 20" fill="none" xmlns="http://www.w3.org/2000/svg">
<path d="M15.832 10C15.832 9.30967 16.3917 8.75 17.082 8.75C17.7724 8.75 18.332 9.30967 18.332 10C18.332 10.6903 17.7724 11.25 17.082 11.25C16.3917 11.25 15.832 10.6903 15.832 10Z" stroke="#141B34" stroke-width="1.5"/>
<path d="M1.66797 10C1.66797 9.30967 2.22761 8.75 2.91797 8.75C3.60833 8.75 4.16797 9.30967 4.16797 10C4.16797 10.6903 3.60833 11.25 2.91797 11.25C2.22761 11.25 1.66797 10.6903 1.66797 10Z" stroke="#141B34" stroke-width="1.5"/>
<path d="M11.4213 8.58002C11.1772 8.33594 10.7844 8.33594 9.9987 8.33594C9.21303 8.33594 8.8202 8.33594 8.57611 8.58002M11.4213 8.58002C11.6654 8.8241 11.6654 9.21694 11.6654 10.0026C11.6654 10.7883 11.6654 11.1811 11.4213 11.4252M8.57611 8.58002C8.33203 8.8241 8.33203 9.21694 8.33203 10.0026C8.33203 10.7883 8.33203 11.1811 8.57611 11.4252M8.57611 11.4252C8.8202 11.6693 9.21303 11.6693 9.9987 11.6693C10.7844 11.6693 11.1772 11.6693 11.4213 11.4252" stroke="#141B34" stroke-width="1.5" stroke-linecap="round" stroke-linejoin="round"/>
<path d="M17.2572 1.90814C17.0131 1.66406 16.6203 1.66406 15.8346 1.66406C15.049 1.66406 14.6561 1.66406 14.4121 1.90814M17.2572 1.90814C17.5013 2.15222 17.5013 2.54505 17.5013 3.33073C17.5013 4.1164 17.5013 4.50924 17.2572 4.75332M14.4121 1.90814C14.168 2.15222 14.168 2.54505 14.168 3.33073C14.168 4.1164 14.168 4.50924 14.4121 4.75332M14.4121 4.75332C14.6561 4.9974 15.049 4.9974 15.8346 4.9974C16.6203 4.9974 17.0131 4.9974 17.2572 4.75332" stroke="#141B34" stroke-width="1.5" stroke-linecap="round" stroke-linejoin="round"/>
<path d="M5.58926 15.2441C5.34517 15 4.95234 15 4.16667 15C3.38099 15 2.98816 15 2.74408 15.2441M5.58926 15.2441C5.83333 15.4882 5.83333 15.881 5.83333 16.6667C5.83333 17.4523 5.83333 17.8452 5.58926 18.0892M2.74408 15.2441C2.5 15.4882 2.5 15.881 2.5 16.6667C2.5 17.4523 2.5 17.8452 2.74408 18.0892M2.74408 18.0892C2.98816 18.3333 3.38099 18.3333 4.16667 18.3333C4.95234 18.3333 5.34517 18.3333 5.58926 18.0892" stroke="#141B34" stroke-width="1.5" stroke-linecap="round" stroke-linejoin="round"/>
<path d="M4.16797 10H8.33464" stroke="#141B34" stroke-width="1.5" stroke-linecap="round" stroke-linejoin="round"/>
<path d="M11.668 10H15.8346" stroke="#141B34" stroke-width="1.5" stroke-linecap="round" stroke-linejoin="round"/>
<path d="M10 8.33594C10 6.66927 10.6944 3.33594 14.1667 3.33594" stroke="#141B34" stroke-width="1.5" stroke-linecap="round" stroke-linejoin="round"/>
<path d="M9.9987 11.6641C9.9987 13.3307 9.30428 16.6641 5.83203 16.6641" stroke="#141B34" stroke-width="1.5" stroke-linecap="round" stroke-linejoin="round"/>
</svg>
