<svg width="20" height="20" viewBox="0 0 20 20" fill="none" xmlns="http://www.w3.org/2000/svg">
<path d="M6.66797 11.2526H13.3346M6.66797 7.08594H10.0013" stroke="#141B34" stroke-width="1.5" stroke-linecap="round" stroke-linejoin="round"/>
<path d="M5.08364 15.8359C4.00022 15.7294 3.18859 15.4039 2.64428 14.8596C1.66797 13.8834 1.66797 12.3119 1.66797 9.16927V8.7526C1.66797 5.6099 1.66797 4.03856 2.64428 3.06225C3.62059 2.08594 5.19194 2.08594 8.33464 2.08594H11.668C14.8106 2.08594 16.3821 2.08594 17.3583 3.06225C18.3346 4.03856 18.3346 5.6099 18.3346 8.7526V9.16927C18.3346 12.3119 18.3346 13.8834 17.3583 14.8596C16.3821 15.8359 14.8106 15.8359 11.668 15.8359C11.2009 15.8464 10.8289 15.8819 10.4635 15.9651C9.4648 16.195 8.54005 16.706 7.62619 17.1517C6.32404 17.7866 5.67297 18.1041 5.26438 17.8069C4.48271 17.2247 5.24675 15.4209 5.41797 14.5859" stroke="#141B34" stroke-width="1.5" stroke-linecap="round"/>
</svg>
