<svg width="17" height="17" viewBox="0 0 17 17" fill="none" xmlns="http://www.w3.org/2000/svg">
<path d="M1.41797 5.66667C1.41797 5.66667 4.58928 2.125 8.5013 2.125C12.4133 2.125 15.5846 5.66667 15.5846 5.66667" stroke="#8A358A" stroke-width="1.5" stroke-linecap="round"/>
<path d="M15.2616 9.24086C15.477 9.54282 15.5846 9.69384 15.5846 9.91732C15.5846 10.1408 15.477 10.2918 15.2616 10.5938C14.294 11.9507 11.8228 14.8757 8.5013 14.8757C5.17977 14.8757 2.70862 11.9507 1.741 10.5938C1.52564 10.2918 1.41797 10.1408 1.41797 9.91732C1.41797 9.69384 1.52564 9.54282 1.741 9.24086C2.70862 7.88398 5.17977 4.95898 8.5013 4.95898C11.8228 4.95898 14.294 7.88398 15.2616 9.24086Z" stroke="#8A358A" stroke-width="1.5"/>
<path d="M10.625 9.91602C10.625 8.74238 9.67364 7.79102 8.5 7.79102C7.32636 7.79102 6.375 8.74238 6.375 9.91602C6.375 11.0897 7.32636 12.041 8.5 12.041C9.67364 12.041 10.625 11.0897 10.625 9.91602Z" stroke="#8A358A"/>
</svg>
