<svg width="24" height="24" viewBox="0 0 24 24" fill="none" xmlns="http://www.w3.org/2000/svg">
<path d="M19.6352 11.1814C19.8784 11.5468 20 11.7296 20 12C20 12.2704 19.8784 12.4532 19.6352 12.8186C18.5423 14.4605 15.7514 18 12 18C8.24862 18 5.45768 14.4605 4.36483 12.8186C4.12161 12.4532 4 12.2704 4 12C4 11.7296 4.12161 11.5468 4.36483 11.1814C5.45768 9.53952 8.24862 6 12 6C15.7514 6 18.5423 9.53952 19.6352 11.1814Z" stroke="#141B34" stroke-width="1.5"/>
<path d="M19.6352 11.1814C19.8784 11.5468 20 11.7296 20 12C20 12.2704 19.8784 12.4532 19.6352 12.8186C18.5423 14.4605 15.7514 18 12 18C8.24862 18 5.45768 14.4605 4.36483 12.8186C4.12161 12.4532 4 12.2704 4 12C4 11.7296 4.12161 11.5468 4.36483 11.1814C5.45768 9.53952 8.24862 6 12 6C15.7514 6 18.5423 9.53952 19.6352 11.1814Z" stroke="white" stroke-opacity="0.2" stroke-width="1.5"/>
<path d="M14 12C14 10.8954 13.1046 10 12 10C10.8954 10 10 10.8954 10 12C10 13.1046 10.8954 14 12 14C13.1046 14 14 13.1046 14 12Z" stroke="#141B34" stroke-width="1.5"/>
<path d="M14 12C14 10.8954 13.1046 10 12 10C10.8954 10 10 10.8954 10 12C10 13.1046 10.8954 14 12 14C13.1046 14 14 13.1046 14 12Z" stroke="white" stroke-opacity="0.2" stroke-width="1.5"/>
</svg>
