<svg width="24" height="24" viewBox="0 0 24 24" fill="none" xmlns="http://www.w3.org/2000/svg">
<path d="M22 12C22 6.47715 17.5228 2 12 2C6.47715 2 2 6.47715 2 12C2 17.5228 6.47715 22 12 22C17.5228 22 22 17.5228 22 12Z" fill="white" fill-opacity="0.4"/>
<path d="M12.775 7.00196C12.2827 6.99494 11.7876 7.00678 11.3062 7.03741C9.00551 7.18375 7.17292 8.9623 7.02213 11.1951C6.99262 11.632 6.99262 12.0846 7.02213 12.5215C7.07705 13.3347 7.45289 14.0877 7.89535 14.7235C8.15225 15.1686 7.98271 15.7241 7.71511 16.2094C7.52217 16.5593 7.4257 16.7342 7.50316 16.8606C7.58062 16.9869 7.75364 16.991 8.09968 16.999C8.78402 17.015 9.24547 16.8293 9.61177 16.5708C9.81952 16.4243 9.9234 16.3509 9.99499 16.3425C10.0666 16.3341 10.2075 16.3896 10.4892 16.5007C10.7424 16.6005 11.0364 16.662 11.3062 16.6792C12.0895 16.729 12.9089 16.7292 13.6938 16.6792C15.9945 16.5329 17.8271 14.7543 17.9779 12.5215C18.0012 12.1768 18.006 11.8225 17.9926 11.4737" stroke="#141B34" stroke-width="1.5" stroke-linecap="round" stroke-linejoin="round"/>
<path d="M11 13H14M11 11H12.5" stroke="#686868" stroke-width="1.5" stroke-linecap="round" stroke-linejoin="round"/>
<path d="M14 8H18M16 6V10" stroke="#686868" stroke-width="1.5" stroke-linecap="round" stroke-linejoin="round"/>
</svg>
