<svg width="24" height="24" viewBox="0 0 24 24" fill="none" xmlns="http://www.w3.org/2000/svg">
<path d="M11.5163 2.09181C11.8285 1.96745 12.1755 1.96745 12.4877 2.09181C13.4941 2.4926 13.6907 4.03598 14.8782 4.1219C15.7144 4.1824 16.535 3.48531 17.3741 3.69428C17.7125 3.77857 18.0048 3.99432 18.188 4.2951C18.7492 5.21677 18.0249 6.57146 18.9403 7.33622C19.5763 7.8673 20.6271 7.79858 21.18 8.44964C21.4128 8.72388 21.5272 9.08156 21.4973 9.44223C21.4088 10.5151 20.0409 11.1861 20.3415 12.3424C20.5495 13.1428 21.4273 13.7055 21.4973 14.5548C21.5272 14.9155 21.4128 15.2732 21.18 15.5474C20.4852 16.3654 18.9828 16.096 18.5496 17.2047C18.2454 17.9829 18.636 18.9662 18.188 19.7019C18.0048 20.0027 17.7125 20.2185 17.3741 20.3028C16.3322 20.5622 15.2747 19.443 14.2721 20.0743C13.5563 20.5249 13.2998 21.582 12.4877 21.9052C12.1755 22.0296 11.8285 22.0296 11.5163 21.9052C10.7042 21.582 10.4477 20.5249 9.73184 20.0743C8.74166 19.4509 7.65408 20.5578 6.62986 20.3028C6.29142 20.2185 5.99915 20.0027 5.816 19.7019C5.25481 18.7803 5.97899 17.4255 5.06365 16.6608C4.42777 16.1297 3.37689 16.1985 2.82399 15.5474C2.59116 15.2732 2.47679 14.9155 2.5066 14.5548C2.5768 13.7055 3.45435 13.1428 3.66245 12.3424C3.96003 11.1982 2.59399 10.4994 2.5066 9.44223C2.47679 9.08156 2.59116 8.72388 2.82399 8.44964C3.51871 7.63138 5.02094 7.90106 5.45433 6.79237C5.75857 6.01413 5.36803 5.03081 5.816 4.2951C5.99915 3.99432 6.29142 3.77857 6.62986 3.69428C7.469 3.48531 8.28953 4.18241 9.12573 4.1219C10.3133 4.036 10.5099 2.4926 11.5163 2.09181Z" fill="#E0AA3E" stroke="white" stroke-width="1.5" stroke-linejoin="round"/>
<path d="M9 13.3348C9 13.3348 9.875 13.3348 10.75 15.0015C10.75 15.0015 13.5294 10.8348 16 10.0015" stroke="white" stroke-width="1.5" stroke-linecap="round" stroke-linejoin="round"/>
</svg>
