<svg width="20" height="20" viewBox="0 0 20 20" fill="none" xmlns="http://www.w3.org/2000/svg">
<path d="M10.8333 3.33594H2.5" stroke="#141B34" stroke-width="1.5" stroke-linecap="round" stroke-linejoin="round"/>
<path d="M9.16667 15.8359H2.5" stroke="#141B34" stroke-width="1.5" stroke-linecap="round" stroke-linejoin="round"/>
<path d="M17.5013 15.8359H14.168" stroke="#141B34" stroke-width="1.5" stroke-linecap="round" stroke-linejoin="round"/>
<path d="M17.5013 9.58594H9.16797" stroke="#141B34" stroke-width="1.5" stroke-linecap="round" stroke-linejoin="round"/>
<path d="M17.4987 3.33594H15.832" stroke="#141B34" stroke-width="1.5" stroke-linecap="round" stroke-linejoin="round"/>
<path d="M4.16667 9.58594H2.5" stroke="#141B34" stroke-width="1.5" stroke-linecap="round" stroke-linejoin="round"/>
<path d="M12.082 1.66406C12.4703 1.66406 12.6644 1.66406 12.8176 1.7275C13.0218 1.81207 13.184 1.9743 13.2686 2.1785C13.332 2.33164 13.332 2.52578 13.332 2.91406V3.7474C13.332 4.13568 13.332 4.32982 13.2686 4.48296C13.184 4.68715 13.0218 4.84939 12.8176 4.93396C12.6644 4.9974 12.4703 4.9974 12.082 4.9974C11.6938 4.9974 11.4996 4.9974 11.3464 4.93396C11.1423 4.84939 10.98 4.68715 10.8954 4.48296C10.832 4.32982 10.832 4.13568 10.832 3.7474V2.91406C10.832 2.52578 10.832 2.33164 10.8954 2.1785C10.98 1.9743 11.1423 1.81207 11.3464 1.7275C11.4996 1.66406 11.6938 1.66406 12.082 1.66406Z" stroke="#141B34" stroke-width="1.5" stroke-linecap="round" stroke-linejoin="round"/>
<path d="M10.418 14.1641C10.8062 14.1641 11.0004 14.1641 11.1536 14.2275C11.3577 14.3121 11.52 14.4743 11.6046 14.6785C11.668 14.8316 11.668 15.0258 11.668 15.4141V16.2474C11.668 16.6356 11.668 16.8298 11.6046 16.983C11.52 17.1871 11.3577 17.3494 11.1536 17.434C11.0004 17.4974 10.8062 17.4974 10.418 17.4974C10.0297 17.4974 9.83555 17.4974 9.68239 17.434C9.47822 17.3494 9.31597 17.1871 9.23139 16.983C9.16797 16.8298 9.16797 16.6356 9.16797 16.2474V15.4141C9.16797 15.0258 9.16797 14.8316 9.23139 14.6785C9.31597 14.4743 9.47822 14.3121 9.68239 14.2275C9.83555 14.1641 10.0297 14.1641 10.418 14.1641Z" stroke="#141B34" stroke-width="1.5" stroke-linecap="round" stroke-linejoin="round"/>
<path d="M7.91797 7.91406C8.30625 7.91406 8.50039 7.91406 8.65355 7.9775C8.85772 8.06207 9.01997 8.2243 9.10455 8.42848C9.16797 8.58165 9.16797 8.77581 9.16797 9.16406V9.9974C9.16797 10.3856 9.16797 10.5798 9.10455 10.733C9.01997 10.9371 8.85772 11.0994 8.65355 11.184C8.50039 11.2474 8.30625 11.2474 7.91797 11.2474C7.52969 11.2474 7.33554 11.2474 7.1824 11.184C6.97821 11.0994 6.81598 10.9371 6.7314 10.733C6.66797 10.5798 6.66797 10.3856 6.66797 9.9974V9.16406C6.66797 8.77581 6.66797 8.58165 6.7314 8.42848C6.81598 8.2243 6.97821 8.06207 7.1824 7.9775C7.33554 7.91406 7.52969 7.91406 7.91797 7.91406Z" stroke="#141B34" stroke-width="1.5" stroke-linecap="round" stroke-linejoin="round"/>
</svg>
