<svg width="16" height="16" viewBox="0 0 16 16" fill="none" xmlns="http://www.w3.org/2000/svg">
<path d="M8.66667 2.67188H2" stroke="#141B34" stroke-linecap="round" stroke-linejoin="round"/>
<path d="M7.33333 12.6719H2" stroke="#141B34" stroke-linecap="round" stroke-linejoin="round"/>
<path d="M13.9987 12.6719H11.332" stroke="#141B34" stroke-linecap="round" stroke-linejoin="round"/>
<path d="M13.9987 7.67188H7.33203" stroke="#141B34" stroke-linecap="round" stroke-linejoin="round"/>
<path d="M14.0013 2.67188H12.668" stroke="#141B34" stroke-linecap="round" stroke-linejoin="round"/>
<path d="M3.33333 7.67188H2" stroke="#141B34" stroke-linecap="round" stroke-linejoin="round"/>
<path d="M9.66797 1.32813C9.97857 1.32813 10.1339 1.32812 10.2564 1.37887C10.4198 1.44653 10.5496 1.57632 10.6172 1.73967C10.668 1.86219 10.668 2.0175 10.668 2.32812V2.99479C10.668 3.30542 10.668 3.46073 10.6172 3.58324C10.5496 3.7466 10.4198 3.87638 10.2564 3.94404C10.1339 3.99479 9.97857 3.99479 9.66797 3.99479C9.35737 3.99479 9.20204 3.99479 9.0795 3.94404C8.91617 3.87638 8.78637 3.7466 8.7187 3.58324C8.66797 3.46073 8.66797 3.30542 8.66797 2.99479V2.32812C8.66797 2.0175 8.66797 1.86219 8.7187 1.73967C8.78637 1.57632 8.91617 1.44653 9.0795 1.37887C9.20204 1.32812 9.35737 1.32813 9.66797 1.32813Z" stroke="#141B34" stroke-linecap="round" stroke-linejoin="round"/>
<path d="M8.33203 11.3281C8.64263 11.3281 8.79796 11.3281 8.9205 11.3789C9.08383 11.4465 9.21363 11.5763 9.2813 11.7397C9.33203 11.8622 9.33203 12.0175 9.33203 12.3281V12.9948C9.33203 13.3054 9.33203 13.4607 9.2813 13.5833C9.21363 13.7466 9.08383 13.8764 8.9205 13.9441C8.79796 13.9948 8.64263 13.9948 8.33203 13.9948C8.02143 13.9948 7.8661 13.9948 7.74356 13.9441C7.58023 13.8764 7.45043 13.7466 7.38276 13.5833C7.33203 13.4607 7.33203 13.3054 7.33203 12.9948V12.3281C7.33203 12.0175 7.33203 11.8622 7.38276 11.7397C7.45043 11.5763 7.58023 11.4465 7.74356 11.3789C7.8661 11.3281 8.02143 11.3281 8.33203 11.3281Z" stroke="#141B34" stroke-linecap="round" stroke-linejoin="round"/>
<path d="M6.33203 6.32812C6.64266 6.32812 6.79796 6.32813 6.9205 6.37887C7.08383 6.44653 7.21363 6.57632 7.2813 6.73966C7.33203 6.86219 7.33203 7.01752 7.33203 7.32812V7.99479C7.33203 8.30539 7.33203 8.46072 7.2813 8.58326C7.21363 8.74659 7.08383 8.87639 6.9205 8.94406C6.79796 8.99479 6.64266 8.99479 6.33203 8.99479C6.0214 8.99479 5.86609 8.99479 5.74358 8.94406C5.58022 8.87639 5.45044 8.74659 5.38278 8.58326C5.33203 8.46072 5.33203 8.30539 5.33203 7.99479V7.32812C5.33203 7.01752 5.33203 6.86219 5.38278 6.73966C5.45044 6.57632 5.58022 6.44653 5.74358 6.37887C5.86609 6.32813 6.0214 6.32812 6.33203 6.32812Z" stroke="#141B34" stroke-linecap="round" stroke-linejoin="round"/>
</svg>
