<svg width="20" height="20" viewBox="0 0 20 20" fill="none" xmlns="http://www.w3.org/2000/svg">
<path d="M1.66797 9.16406C3.61105 7.12892 6.37066 7.03309 8.33464 9.16406M7.08054 3.7474C7.08054 4.89799 6.14648 5.83073 4.99424 5.83073C3.84201 5.83073 2.90794 4.89799 2.90794 3.7474C2.90794 2.5968 3.84201 1.66406 4.99424 1.66406C6.14648 1.66406 7.08054 2.5968 7.08054 3.7474Z" stroke="#141B34" stroke-width="1.5" stroke-linecap="round"/>
<path d="M11.668 18.3359C13.6111 16.3008 16.3706 16.2049 18.3346 18.3359M17.0806 12.9193C17.0806 14.0699 16.1465 15.0026 14.9942 15.0026C13.8421 15.0026 12.908 14.0699 12.908 12.9193C12.908 11.7687 13.8421 10.8359 14.9942 10.8359C16.1465 10.8359 17.0806 11.7687 17.0806 12.9193Z" stroke="#141B34" stroke-width="1.5" stroke-linecap="round"/>
<path d="M2.5 11.6641C2.5 14.8891 5.10833 17.4974 8.33333 17.4974L7.5 15.8307" stroke="#141B34" stroke-width="1.5" stroke-linecap="round" stroke-linejoin="round"/>
<path d="M12.5 2.5H17.5M12.5 5H17.5M12.5 7.5H15.4167" stroke="#141B34" stroke-width="1.5" stroke-linecap="round" stroke-linejoin="round"/>
</svg>
