<svg width="17" height="17" viewBox="0 0 17 17" fill="none" xmlns="http://www.w3.org/2000/svg">
<path d="M4.95898 8.00025C8.70182 1.02448 13.3623 0.944044 15.2247 1.7758C16.0564 3.63819 15.976 8.29867 9.00024 12.0415C8.92785 11.6256 8.52558 10.5362 7.49489 9.5056C6.46428 8.4749 5.37486 8.07264 4.95898 8.00025Z" stroke="#8A358A" stroke-width="1.2" stroke-linecap="round" stroke-linejoin="round"/>
<path d="M9.91602 11.8998C11.363 12.561 11.5175 13.7464 11.7179 14.8748C11.7179 14.8748 14.7485 12.7839 12.81 9.9165" stroke="#8A358A" stroke-width="1.2" stroke-linecap="round" stroke-linejoin="round"/>
<path d="M5.09999 7.08317C4.43887 5.6362 3.25341 5.48171 2.125 5.28127C2.125 5.28127 4.21596 2.25068 7.08333 4.18923" stroke="#8A358A" stroke-width="1.2" stroke-linecap="round" stroke-linejoin="round"/>
<path d="M4.39714 9.9165C3.94955 10.3641 3.18864 11.6621 3.72575 13.2734C5.33708 13.8106 6.6351 13.0497 7.08267 12.6021" stroke="#8A358A" stroke-width="1.2" stroke-linecap="round" stroke-linejoin="round"/>
<path d="M12.818 5.49155C12.818 4.76891 12.2322 4.18311 11.5096 4.18311C10.787 4.18311 10.2012 4.76891 10.2012 5.49155C10.2012 6.21419 10.787 6.8 11.5096 6.8C12.2322 6.8 12.818 6.21419 12.818 5.49155Z" stroke="#8A358A" stroke-width="1.2"/>
</svg>
