<svg width="16" height="16" viewBox="0 0 16 16" fill="none" xmlns="http://www.w3.org/2000/svg">
<path d="M1.33398 9.33366C1.33398 7.46106 1.33398 6.52473 1.7834 5.85214C1.97796 5.56097 2.22796 5.31097 2.51913 5.11641C3.19172 4.66699 4.12804 4.66699 6.00065 4.66699H10.0007C11.8733 4.66699 12.8096 4.66699 13.4822 5.11641C13.7733 5.31097 14.0233 5.56097 14.2179 5.85214C14.6673 6.52473 14.6673 7.46106 14.6673 9.33366C14.6673 11.2063 14.6673 12.1426 14.2179 12.8152C14.0233 13.1063 13.7733 13.3563 13.4822 13.5509C12.8096 14.0003 11.8733 14.0003 10.0007 14.0003H6.00065C4.12804 14.0003 3.19172 14.0003 2.51913 13.5509C2.22796 13.3563 1.97796 13.1063 1.7834 12.8152C1.33398 12.1426 1.33398 11.2063 1.33398 9.33366Z" stroke="#141B34" stroke-linecap="round" stroke-linejoin="round"/>
<path d="M10.6673 4.66667C10.6673 3.40959 10.6673 2.78105 10.2768 2.39053C9.88625 2 9.25772 2 8.00065 2C6.74358 2 6.11503 2 5.72451 2.39053C5.33398 2.78105 5.33398 3.40959 5.33398 4.66667" stroke="#141B34" stroke-linecap="round" stroke-linejoin="round"/>
<path d="M4 7.33301L4.43465 7.46767C6.7234 8.17701 9.2766 8.17701 11.5653 7.46767L12 7.33301M8 7.99967V9.33301" stroke="#141B34" stroke-linecap="round" stroke-linejoin="round"/>
</svg>
